#N canvas 687 85 450 300 12;
#X obj 38 28 osc~ 220;
#X obj 38 71 *~ 0.8;
#X obj 38 125 dac~;
#X obj 148 28 loadbang;
#X obj 148 72 delay 20;
#X msg 148 126 \; pd dsp 1;
#X connect 0 0 1 0;
#X connect 1 0 2 0;
#X connect 1 0 2 1;
#X connect 3 0 4 0;
#X connect 4 0 5 0;
