#N canvas 0 25 960 1027 12;
#X obj 337 720 *~;
#X floatatom 354 406 5 0 0 0 - - - 0;
#X obj 354 447 scale_abs, f 53;
#X floatatom 354 592 5 0 0 0 - - - 0;
#X obj 630 363 loadbang;
#X msg 630 406 1;
#X msg 722 406 0;
#X obj 354 675 line~;
#X obj 36 24 VoicesGui;
#X obj 538 363 r sens_max;
#X obj 250 176 s sens_in;
#X obj 435 632 s sens_out;
#X floatatom 538 406 5 0 0 0 - - - 0;
#X floatatom 446 406 5 0 0 0 - - - 0;
#X obj 301 211 moses 40;
#X obj 337 824 dac~;
#X obj 337 788 *~;
#X floatatom 355 758 5 0 1 0 - vol - 0;
#X obj 446 363 r sens_min;
#X obj 354 176 r sens_min;
#X obj 252 247 r sens_max;
#X msg 43 380 dsp 1;
#X obj 43 413 s pd;
#X obj 309 286 >;
#X obj 354 287 moses 2000;
#X msg 309 328 2500;
#X msg 252 287 set \$1;
#X obj 450 247 r sens_max;
#X obj 354 553 pow 2;
#X obj 383 525 t b f;
#X floatatom 383 493 5 0 0 0 - curve - 0;
#X obj 43 347 loadbang;
#X obj 43 446 loadbang;
#X obj 301 65 change;
#X floatatom 301 100 5 0 0 0 - - - 0;
#N canvas 804 174 450 300 oscIn 0;
#X obj 19 184 outlet;
#X obj 19 87 oscparse;
#X msg 31 34 listen 0;
#X msg 19 6 listen 1337;
#X obj 19 61 netreceive -u -b 1337;
#X obj 19 116 route list;
#X obj 19 147 route distance;
#X connect 1 0 5 0;
#X connect 2 0 4 0;
#X connect 3 0 4 0;
#X connect 4 0 1 0;
#X connect 5 0 6 0;
#X connect 6 0 0 0;
#X restore 301 26 pd oscIn;
#X obj 301 140 moses 4000;
#X obj 233 553 bng 15 250 50 0 empty empty empty 17 7 0 10 #fcfcfc
#000000 #000000;
#X obj 354 632 pack 0 100;
#X obj 233 632 pack 0 100;
#X obj 233 592 delay 400;
#N canvas 1008 223 450 417 voiceSynth 0;
#X obj 56 175 osc~ 220;
#X floatatom 73 94 5 0 0 0 - freq - 0;
#X obj 55 129 +~;
#X obj 22 34 osc~ 0.1;
#X obj 22 94 *~ 4;
#X obj 120 34 noise~;
#X floatatom 184 94 5 0 0 0 - - - 0;
#X obj 121 94 *~ 1100;
#X obj 166 129 +~;
#X obj 278 265 outlet~;
#X obj 56 223 vcf~ 1, f 32;
#X obj 184 34 r distanceValid;
#X connect 0 0 10 0;
#X connect 1 0 2 1;
#X connect 2 0 0 0;
#X connect 3 0 4 0;
#X connect 4 0 2 0;
#X connect 5 0 7 0;
#X connect 6 0 8 1;
#X connect 7 0 8 0;
#X connect 8 0 10 1;
#X connect 10 1 9 0;
#X connect 11 0 6 0;
#X restore 233 675 pd voiceSynth;
#X msg 43 479 \; #curve 0.5 \; #sens_min 400 \; #sens_max 2500 \; #freq
218 \; #vol 0.9;
#X obj 365 328 s distanceValid;
#X obj 233 519 r distanceValid;
#X obj 440 493 s post_scale;
#X obj 440 592 s post_curve;
#X connect 0 0 16 0;
#X connect 1 0 2 0;
#X connect 2 0 28 0;
#X connect 2 0 45 0;
#X connect 3 0 11 0;
#X connect 3 0 38 0;
#X connect 4 0 5 0;
#X connect 4 0 6 0;
#X connect 5 0 2 3;
#X connect 6 0 2 4;
#X connect 7 0 0 1;
#X connect 9 0 12 0;
#X connect 12 0 2 2;
#X connect 13 0 2 1;
#X connect 14 1 23 0;
#X connect 14 1 24 0;
#X connect 16 0 15 0;
#X connect 17 0 16 1;
#X connect 18 0 13 0;
#X connect 19 0 14 1;
#X connect 20 0 23 1;
#X connect 20 0 26 0;
#X connect 21 0 22 0;
#X connect 23 0 25 0;
#X connect 24 0 1 0;
#X connect 24 0 43 0;
#X connect 26 0 25 0;
#X connect 27 0 24 1;
#X connect 28 0 3 0;
#X connect 28 0 46 0;
#X connect 29 0 28 0;
#X connect 29 1 28 1;
#X connect 30 0 29 0;
#X connect 31 0 21 0;
#X connect 32 0 42 0;
#X connect 33 0 34 0;
#X connect 34 0 36 0;
#X connect 35 0 33 0;
#X connect 36 0 14 0;
#X connect 36 0 10 0;
#X connect 37 0 40 0;
#X connect 38 0 7 0;
#X connect 39 0 7 0;
#X connect 40 0 39 0;
#X connect 41 0 0 0;
#X connect 44 0 37 0;
#X connect 44 0 39 1;
#X coords 0 0 1 1 85 60 0;
