#N canvas 945 25 960 1027 12;
#X obj 337 720 *~;
#X floatatom 354 406 5 0 0 0 - - -;
#X obj 354 447 scale_abs, f 53;
#X floatatom 354 592 5 0 0 0 - - -;
#X obj 630 363 loadbang;
#X msg 630 406 1;
#X msg 722 406 0;
#X obj 354 675 line~;
#X obj 538 363 r sens_max;
#X obj 250 176 s sens_in;
#X obj 435 632 s sens_out;
#X floatatom 538 406 5 0 0 0 - - -;
#X floatatom 446 406 5 0 0 0 - - -;
#X obj 301 211 moses 40;
#X obj 337 824 dac~;
#X obj 337 788 *~;
#X floatatom 355 758 5 0 1 0 - vol -;
#X obj 446 363 r sens_min;
#X obj 354 176 r sens_min;
#X obj 252 247 r sens_max;
#X obj 309 286 >;
#X obj 354 287 moses 2000;
#X msg 309 328 2000;
#X msg 252 287 set \$1;
#X obj 450 247 r sens_max;
#X obj 354 553 pow 2;
#X obj 383 525 t b f;
#X floatatom 383 493 5 0 0 0 - curve -;
#X obj 38 352 loadbang;
#X obj 301 65 change;
#X floatatom 301 100 5 0 0 0 - - -;
#N canvas 804 174 450 300 oscIn 0;
#X obj 19 184 outlet;
#X obj 19 87 oscparse;
#X msg 31 34 listen 0;
#X msg 19 6 listen 1337;
#X obj 19 61 netreceive -u -b 1337;
#X obj 19 116 route list;
#X obj 19 147 route distance;
#X connect 1 0 5 0;
#X connect 2 0 4 0;
#X connect 3 0 4 0;
#X connect 4 0 1 0;
#X connect 5 0 6 0;
#X connect 6 0 0 0;
#X restore 301 26 pd oscIn;
#X obj 301 140 moses 4000;
#X obj 233 553 bng 15 250 50 0 empty empty empty 17 7 0 10 -262144
-1 -1;
#X obj 233 632 pack 0 100;
#N canvas 102 223 813 737 voiceSynth 0;
#X obj 57 427 osc~ 220;
#X floatatom 75 346 5 0 0 0 - freq -;
#X obj 57 381 +~;
#X obj 24 126 osc~ 0.1;
#X obj 122 310 noise~;
#X floatatom 185 346 5 0 0 0 - - -;
#X obj 122 346 *~ 1100;
#X obj 167 381 +~;
#X obj 278 517 outlet~;
#X obj 57 475 vcf~ 1, f 32;
#X obj 330 380 r distanceValid;
#X obj 25 216 *~ 3;
#X floatatom 50 185 5 0 0 0 - - -;
#X obj 24 94 r #vib_rate;
#X obj 206 153 r #vib_delay;
#X obj 50 156 r #vib_depth;
#X msg 339 181 0 50;
#X obj 57 261 *~;
#X obj 153 220 line;
#X obj 153 94 r active;
#X obj 153 124 sel 1, f 27;
#X obj 168 282 r #noise_vol;
#X obj 153 183 pack 1 f;
#X obj 398 288 readsf~;
#X msg 398 255 1;
#X msg 430 218 open fieldrecordings/fieldrecording1.wav;
#X obj 398 156 bng 15 250 50 0 empty empty empty 17 7 0 10 -262144
-1 -1;
#X obj 398 184 t b b;
#X obj 397 319 *~ 30;
#X obj 398 88 loadbang;
#X obj 398 125 delay 50;
#X obj 354 447 scale_abs, f 53;
#X obj 630 363 loadbang;
#X obj 538 363 r sens_max;
#X floatatom 538 406 5 0 0 0 - - -;
#X floatatom 446 406 5 0 0 0 - - -;
#X obj 446 363 r sens_min;
#X msg 722 406 1;
#X obj 481 322 bng 15 250 50 0 empty empty empty 17 7 0 10 -262144
-1 -1;
#X msg 630 406 8000;
#X connect 0 0 9 0;
#X connect 1 0 2 1;
#X connect 2 0 0 0;
#X connect 3 0 11 0;
#X connect 5 0 7 1;
#X connect 6 0 7 0;
#X connect 7 0 9 1;
#X connect 9 0 8 0;
#X connect 10 0 31 0;
#X connect 11 0 17 0;
#X connect 12 0 11 1;
#X connect 13 0 3 0;
#X connect 14 0 22 1;
#X connect 15 0 12 0;
#X connect 16 0 18 0;
#X connect 17 0 2 0;
#X connect 18 0 17 1;
#X connect 19 0 20 0;
#X connect 20 0 22 0;
#X connect 20 1 16 0;
#X connect 21 0 6 1;
#X connect 22 0 18 0;
#X connect 23 0 28 0;
#X connect 23 1 26 0;
#X connect 24 0 23 0;
#X connect 25 0 23 0;
#X connect 26 0 27 0;
#X connect 27 0 24 0;
#X connect 27 1 25 0;
#X connect 28 0 9 0;
#X connect 29 0 30 0;
#X connect 30 0 26 0;
#X connect 31 0 5 0;
#X connect 32 0 39 0;
#X connect 32 0 37 0;
#X connect 33 0 34 0;
#X connect 34 0 31 2;
#X connect 35 0 31 1;
#X connect 36 0 35 0;
#X connect 37 0 31 4;
#X connect 39 0 31 3;
#X restore 233 675 pd voiceSynth;
#X obj 365 328 s distanceValid;
#X obj 233 490 r distanceValid;
#X obj 440 493 s post_scale;
#X obj 440 592 s post_curve;
#X obj 34 23 voicesGui;
#X obj 38 384 delay 20;
#N canvas 712 631 1049 300 preset 0;
#X obj 19 137 text define preset1;
#X msg 351 271 line 0;
#X obj 186 240 text sequence preset1 -g;
#X msg 186 211 auto;
#X msg 62 32 click;
#X obj 149 172 bng 15 250 50 0 empty empty empty 17 7 0 10 -262144
-1 -1;
#X obj 186 136 loadbang;
#X obj 111 5 loadbang;
#X obj 111 32 delay 20;
#X obj 253 170 delay 40;
#X obj 186 171 delay 30;
#X obj 19 32 inlet;
#X msg 111 91 write ../pdPreset, f 21;
#X msg 111 61 read ../pdPreset, f 21;
#X connect 0 1 5 0;
#X connect 1 0 2 0;
#X connect 2 1 1 0;
#X connect 3 0 2 0;
#X connect 4 0 0 0;
#X connect 5 0 3 0;
#X connect 6 0 10 0;
#X connect 6 0 9 0;
#X connect 7 0 8 0;
#X connect 8 0 13 0;
#X connect 9 0 3 0;
#X connect 10 0 3 0;
#X connect 11 0 0 0;
#X connect 12 0 0 0;
#X connect 13 0 0 0;
#X restore 125 435 pd preset;
#X obj 423 719 > 0.1;
#X obj 423 757 s active;
#X obj 423 676 line;
#X msg 125 352 click;
#X msg 38 421 \; pd dsp 1;
#X msg 139 408 write ../pdPreset;
#X msg 139 378 read ../pdPreset, f 17;
#X obj 354 632 pack 0 100;
#X obj 233 592 delay 400;
#X text 37 328 voices v3.4;
#X obj 257 551 * 0.4;
#X connect 0 0 15 0;
#X connect 1 0 2 0;
#X connect 2 0 25 0;
#X connect 2 0 38 0;
#X connect 3 0 10 0;
#X connect 3 0 43 0;
#X connect 3 0 50 0;
#X connect 4 0 5 0;
#X connect 4 0 6 0;
#X connect 5 0 2 3;
#X connect 6 0 2 4;
#X connect 7 0 0 1;
#X connect 8 0 11 0;
#X connect 11 0 2 2;
#X connect 12 0 2 1;
#X connect 13 1 20 0;
#X connect 13 1 21 0;
#X connect 15 0 14 0;
#X connect 16 0 15 1;
#X connect 17 0 12 0;
#X connect 18 0 13 1;
#X connect 19 0 20 1;
#X connect 19 0 23 0;
#X connect 20 0 22 0;
#X connect 21 0 1 0;
#X connect 21 0 36 0;
#X connect 22 0 1 0;
#X connect 23 0 22 0;
#X connect 24 0 21 1;
#X connect 25 0 3 0;
#X connect 25 0 39 0;
#X connect 26 0 25 0;
#X connect 26 1 25 1;
#X connect 27 0 26 0;
#X connect 28 0 41 0;
#X connect 29 0 30 0;
#X connect 30 0 32 0;
#X connect 31 0 29 0;
#X connect 32 0 13 0;
#X connect 32 0 9 0;
#X connect 33 0 51 0;
#X connect 34 0 7 0;
#X connect 34 0 45 0;
#X connect 35 0 0 0;
#X connect 37 0 33 0;
#X connect 37 0 53 0;
#X connect 41 0 47 0;
#X connect 43 0 44 0;
#X connect 45 0 43 0;
#X connect 46 0 42 0;
#X connect 48 0 42 0;
#X connect 49 0 42 0;
#X connect 50 0 7 0;
#X connect 50 0 45 0;
#X connect 51 0 34 0;
#X connect 53 0 34 1;
#X connect 53 0 50 1;
#X coords 0 0 1 1 85 60 0;
