#N canvas 0 25 1018 997 12;
#X obj 451 472 vsl 15 128 0 1 0 0 empty empty empty 0 -9 0 10 -262144
-1 -1 0 1;
#X obj 337 737 *~;
#X floatatom 354 393 5 0 0 0 - - -;
#X obj 354 434 scale_abs, f 53;
#X floatatom 354 608 5 0 0 0 - - -;
#X obj 291 702 osc~ 220;
#X obj 630 350 loadbang;
#X msg 630 393 1;
#X msg 722 393 0;
#X obj 354 690 line~;
#X obj 36 24 VoicesGui;
#X floatatom 291 661 5 0 0 0 - freq -;
#X obj 538 350 r sens_max;
#X obj 367 264 s sens_in;
#X obj 435 648 s sens_out;
#X floatatom 538 393 5 0 0 0 - - -;
#X floatatom 446 393 5 0 0 0 - - -;
#X obj 301 227 moses 40;
#X obj 338 820 dac~;
#X obj 337 787 *~;
#X floatatom 378 737 5 0 1 0 - vol -;
#X obj 301 101 oscparse;
#X msg 313 48 listen 0;
#X msg 301 20 listen 1337;
#X obj 301 75 netreceive -u -b 1337;
#X obj 301 130 route list;
#X obj 301 161 route distance;
#X floatatom 264 192 5 0 0 0 - - -;
#X obj 446 350 r sens_min;
#X obj 354 192 r sens_min;
#X obj 252 263 r sens_max;
#X obj 354 648 pack 0 100;
#X msg 43 381 dsp 1;
#X obj 43 414 s pd;
#X obj 309 302 >;
#X obj 354 303 moses 2000;
#X msg 309 344 2500;
#X msg 252 303 set \$1;
#X obj 450 263 r sens_max;
#X obj 354 573 pow 2;
#X obj 383 542 t b f;
#X floatatom 383 510 5 0 0 0 - curve -;
#X obj 473 472 vsl 15 128 0 1 0 0 empty empty empty 0 -9 0 10 -262144
-1 -1 0 1;
#X floatatom 534 204 5 0 0 0 - - -;
#X obj 43 347 loadbang;
#X obj 41 454 loadbang;
#X msg 42 495 \; #curve 0.3 \; #sens_min 400 \; #sens_max 2500 \; #freq
218 \; #vol 0.15;
#X connect 1 0 19 0;
#X connect 2 0 3 0;
#X connect 3 0 39 0;
#X connect 3 0 0 0;
#X connect 4 0 14 0;
#X connect 4 0 31 0;
#X connect 5 0 1 0;
#X connect 6 0 7 0;
#X connect 6 0 8 0;
#X connect 7 0 3 3;
#X connect 8 0 3 4;
#X connect 9 0 1 1;
#X connect 11 0 5 0;
#X connect 12 0 15 0;
#X connect 15 0 3 2;
#X connect 16 0 3 1;
#X connect 17 1 13 0;
#X connect 17 1 34 0;
#X connect 17 1 35 0;
#X connect 19 0 18 0;
#X connect 20 0 19 1;
#X connect 21 0 25 0;
#X connect 22 0 24 0;
#X connect 23 0 24 0;
#X connect 24 0 21 0;
#X connect 25 0 26 0;
#X connect 26 0 27 0;
#X connect 26 0 17 0;
#X connect 28 0 16 0;
#X connect 29 0 17 1;
#X connect 29 0 43 0;
#X connect 30 0 34 1;
#X connect 30 0 37 0;
#X connect 31 0 9 0;
#X connect 32 0 33 0;
#X connect 34 0 36 0;
#X connect 35 0 2 0;
#X connect 36 0 2 0;
#X connect 37 0 36 0;
#X connect 38 0 35 1;
#X connect 39 0 4 0;
#X connect 39 0 42 0;
#X connect 40 0 39 0;
#X connect 40 1 39 1;
#X connect 41 0 40 0;
#X connect 44 0 32 0;
#X connect 45 0 46 0;
#X coords 0 0 1 1 85 60 0;
