#N canvas 945 25 960 1027 12;
#X obj 337 720 *~;
#X floatatom 354 406 5 0 0 0 - - - 0;
#X obj 354 447 scale_abs, f 53;
#X floatatom 354 592 5 0 0 0 - - - 0;
#X obj 630 363 loadbang;
#X msg 630 406 1;
#X msg 722 406 0;
#X obj 354 675 line~;
#X obj 538 363 r sens_max;
#X obj 250 176 s sens_in;
#X obj 435 632 s sens_out;
#X floatatom 538 406 5 0 0 0 - - - 0;
#X floatatom 446 406 5 0 0 0 - - - 0;
#X obj 301 211 moses 40;
#X obj 337 824 dac~;
#X obj 337 788 *~;
#X floatatom 355 758 5 0 1 0 - vol - 0;
#X obj 446 363 r sens_min;
#X obj 354 176 r sens_min;
#X obj 252 247 r sens_max;
#X msg 38 411 dsp 1;
#X obj 38 440 s pd;
#X obj 309 286 >;
#X obj 354 287 moses 2000;
#X msg 309 328 2500;
#X msg 252 287 set \$1;
#X obj 450 247 r sens_max;
#X obj 354 553 pow 2;
#X obj 383 525 t b f;
#X floatatom 383 493 5 0 0 0 - curve - 0;
#X obj 38 352 loadbang;
#X obj 301 65 change;
#X floatatom 301 100 5 0 0 0 - - - 0;
#N canvas 804 174 450 300 oscIn 0;
#X obj 19 184 outlet;
#X obj 19 87 oscparse;
#X msg 31 34 listen 0;
#X msg 19 6 listen 1337;
#X obj 19 61 netreceive -u -b 1337;
#X obj 19 116 route list;
#X obj 19 147 route distance;
#X connect 1 0 5 0;
#X connect 2 0 4 0;
#X connect 3 0 4 0;
#X connect 4 0 1 0;
#X connect 5 0 6 0;
#X connect 6 0 0 0;
#X restore 301 26 pd oscIn;
#X obj 301 140 moses 4000;
#X obj 233 553 bng 15 250 50 0 empty empty empty 17 7 0 10 #fcfcfc
#000000 #000000;
#X obj 354 632 pack 0 100;
#X obj 233 632 pack 0 100;
#X obj 233 592 delay 400;
#N canvas 457 72 460 611 voiceSynth 0;
#X obj 57 427 osc~ 220;
#X floatatom 75 346 5 0 0 0 - freq - 0;
#X obj 57 381 +~;
#X obj 24 126 osc~ 0.1;
#X obj 122 310 noise~;
#X floatatom 185 346 5 0 0 0 - - - 0;
#X obj 122 346 *~ 1100;
#X obj 167 381 +~;
#X obj 278 517 outlet~;
#X obj 57 475 vcf~ 1, f 32;
#X obj 185 311 r distanceValid;
#X obj 25 216 *~ 3;
#X floatatom 50 185 5 0 0 0 - - - 0;
#X obj 24 94 r #vib_rate;
#X obj 206 153 r #vib_delay;
#X obj 50 156 r #vib_depth;
#X msg 339 181 0 50;
#X obj 57 261 *~;
#X obj 153 220 line;
#X obj 153 94 r active;
#X obj 153 183 pack 1 i;
#X obj 153 124 sel 1, f 27;
#X obj 168 282 r #noise_vol;
#X connect 0 0 9 0;
#X connect 1 0 2 1;
#X connect 2 0 0 0;
#X connect 3 0 11 0;
#X connect 4 0 6 0;
#X connect 5 0 7 1;
#X connect 6 0 7 0;
#X connect 7 0 9 1;
#X connect 9 1 8 0;
#X connect 10 0 5 0;
#X connect 11 0 17 0;
#X connect 12 0 11 1;
#X connect 13 0 3 0;
#X connect 14 0 20 1;
#X connect 15 0 12 0;
#X connect 16 0 18 0;
#X connect 17 0 2 0;
#X connect 18 0 17 1;
#X connect 19 0 21 0;
#X connect 20 0 18 0;
#X connect 21 0 20 0;
#X connect 21 1 16 0;
#X connect 22 0 6 1;
#X restore 233 675 pd voiceSynth;
#X obj 365 328 s distanceValid;
#X obj 233 519 r distanceValid;
#X obj 440 493 s post_scale;
#X obj 440 592 s post_curve;
#X obj 34 23 voicesGui;
#X msg 39 474 \; #curve 0.5 \; #sens_min 300 \; #sens_max 2500 \; #freq
218 \; #vol 0.9;
#X obj 38 384 delay 20;
#N canvas 712 631 1049 300 preset 0;
#X obj 19 137 text define preset1;
#X msg 495 272 line 0;
#X obj 330 241 text sequence preset1 -g;
#X msg 330 212 auto;
#X msg 39 71 write /Users/lloydbarrett/Documents/GitHub/voicesfromthevoid/preset1
, f 99;
#X msg 40 105 read /Users/lloydbarrett/Documents/GitHub/voicesfromthevoid/preset1
, f 99;
#X obj 21 11 inlet;
#X msg 21 38 click;
#X obj 149 172 bng 15 250 50 0 empty empty empty 17 7 0 10 #fcfcfc
#000000 #000000;
#X obj 330 137 loadbang;
#X obj 86 10 loadbang;
#X obj 86 39 delay 20;
#X obj 397 171 delay 40;
#X obj 330 172 delay 30;
#X connect 0 1 8 0;
#X connect 1 0 2 0;
#X connect 2 1 1 0;
#X connect 3 0 2 0;
#X connect 4 0 0 0;
#X connect 5 0 0 0;
#X connect 6 0 7 0;
#X connect 7 0 0 0;
#X connect 8 0 3 0;
#X connect 9 0 13 0;
#X connect 9 0 12 0;
#X connect 10 0 11 0;
#X connect 11 0 5 0;
#X connect 12 0 3 0;
#X connect 13 0 3 0;
#X restore 125 380 pd preset;
#X obj 125 354 bng 15 250 50 0 empty empty empty 17 7 0 10 #fcfcfc
#000000 #000000;
#X obj 428 719 > 0.1;
#X obj 428 757 s active;
#X obj 423 676 line;
#X text 37 328 voices v3.1;
#X connect 0 0 15 0;
#X connect 1 0 2 0;
#X connect 2 0 27 0;
#X connect 2 0 42 0;
#X connect 3 0 10 0;
#X connect 3 0 36 0;
#X connect 3 0 49 0;
#X connect 4 0 5 0;
#X connect 4 0 6 0;
#X connect 5 0 2 3;
#X connect 6 0 2 4;
#X connect 7 0 0 1;
#X connect 8 0 11 0;
#X connect 11 0 2 2;
#X connect 12 0 2 1;
#X connect 13 1 22 0;
#X connect 13 1 23 0;
#X connect 15 0 14 0;
#X connect 16 0 15 1;
#X connect 17 0 12 0;
#X connect 18 0 13 1;
#X connect 19 0 22 1;
#X connect 19 0 25 0;
#X connect 20 0 21 0;
#X connect 22 0 24 0;
#X connect 23 0 1 0;
#X connect 23 0 40 0;
#X connect 25 0 24 0;
#X connect 26 0 23 1;
#X connect 27 0 3 0;
#X connect 27 0 43 0;
#X connect 28 0 27 0;
#X connect 28 1 27 1;
#X connect 29 0 28 0;
#X connect 30 0 46 0;
#X connect 31 0 32 0;
#X connect 32 0 34 0;
#X connect 33 0 31 0;
#X connect 34 0 13 0;
#X connect 34 0 9 0;
#X connect 35 0 38 0;
#X connect 36 0 7 0;
#X connect 36 0 51 0;
#X connect 37 0 7 0;
#X connect 37 0 51 0;
#X connect 38 0 37 0;
#X connect 39 0 0 0;
#X connect 41 0 35 0;
#X connect 41 0 37 1;
#X connect 46 0 20 0;
#X connect 48 0 47 0;
#X connect 49 0 50 0;
#X connect 51 0 49 0;
#X coords 0 0 1 1 85 60 0;
